<svg width="32" height="33" viewBox="0 0 32 33" fill="none" xmlns="http://www.w3.org/2000/svg">
<path d="M11 18.5L12.41 19.91L15 17.33V29.5H17V17.33L19.59 19.91L21 18.5L16 13.5L11 18.5Z" fill="black"/>
<path d="M23.4999 22.5001H22.9999V20.5001H23.4999C24.6933 20.5478 25.8569 20.1195 26.7346 19.3093C27.6122 18.4992 28.1321 17.3735 28.1799 16.1801C28.2276 14.9866 27.7993 13.823 26.9891 12.9454C26.179 12.0677 25.0533 11.5478 23.8599 11.5001H22.9999L22.8999 10.6801C22.678 8.99651 21.8517 7.451 20.575 6.33144C19.2982 5.21188 17.658 4.59461 15.9599 4.59461C14.2618 4.59461 12.6215 5.21188 11.3448 6.33144C10.068 7.451 9.24172 8.99651 9.01986 10.6801L8.99986 11.5001H8.13986C6.94638 11.5478 5.82076 12.0677 5.0106 12.9454C4.20044 13.823 3.77212 14.9866 3.81986 16.1801C3.8676 17.3735 4.38749 18.4992 5.26516 19.3093C6.14283 20.1195 7.30638 20.5478 8.49986 20.5001H8.99986V22.5001H8.49986C6.89626 22.4899 5.35302 21.8873 4.16684 20.8082C2.98066 19.729 2.23528 18.2494 2.07399 16.6539C1.9127 15.0584 2.3469 13.4596 3.29311 12.1649C4.23932 10.8702 5.63074 9.97094 7.19986 9.64006C7.63157 7.62658 8.74069 5.82203 10.3422 4.52753C11.9437 3.23302 13.9406 2.52686 15.9999 2.52686C18.0591 2.52686 20.0561 3.23302 21.6575 4.52753C23.259 5.82203 24.3682 7.62658 24.7999 9.64006C26.369 9.97094 27.7604 10.8702 28.7066 12.1649C29.6528 13.4596 30.087 15.0584 29.9257 16.6539C29.7644 18.2494 29.0191 19.729 27.8329 20.8082C26.6467 21.8873 25.1035 22.4899 23.4999 22.5001Z" fill="black"/>
</svg>
